<?xml version="1.0" encoding="utf-8"?>
<!-- Svg Vector Icons : http://www.onlinewebfonts.com/icon -->
<!DOCTYPE svg PUBLIC "-//W3C//DTD SVG 1.1//EN" "http://www.w3.org/Graphics/SVG/1.1/DTD/svg11.dtd">
<svg version="1.1" xmlns="http://www.w3.org/2000/svg" xmlns:xlink="http://www.w3.org/1999/xlink" x="0px" y="0px" viewBox="0 0 1000 1000" enable-background="new 0 0 1000 1000" xml:space="preserve">
<metadata> Svg Vector Icons : http://www.onlinewebfonts.com/icon </metadata>
<g><g transform="translate(0.000000,511.000000) scale(0.100000,-0.100000)"><path d="M1510.4,4987.8c-292.6-92.9-488.4-310.4-543.8-603.1c-29.7-154.2-27.7-6469.9,2-6610.3c49.4-237.3,213.5-446.9,425.1-543.8c144.3-65.2,300.6-83,735.6-85h359.9v-836.4c0-828.5,0-836.4,45.5-923.4c23.7-47.5,69.2-104.8,98.9-126.6c55.4-41.5,73.2-41.5,1967.5-47.4c2135.5-4,1997.1-13.8,2094,132.5c41.5,61.3,45.5,90.9,45.5,310.4v245.2H6604h-134.5l-13.8-102.8c-5.9-57.3-11.9-146.3-11.9-197.7v-94.9h-1829H2785.7v1759.8v1759.8h559.6c622.9,0,652.5,5.9,739.5,136.4c45.5,65.3,45.5,77.1,45.5,638.7v569.5l1162.7-4l1160.7-5.9l5.9-379.6l4-381.6H6602h138.4V28.6c0,425.1,0,431.1-49.4,502.2c-94.9,138.4-63.3,136.4-1473.1,130.5l-1255.6-5.9L3853.5,602c-154.2-77.1-1241.8-1164.7-1309-1311c-45.5-96.9-45.5-108.8-51.4-974.8l-5.9-876l-448.9,5.9c-415.2,5.9-454.8,9.9-528,49.4c-102.8,55.4-176,134.5-225.4,243.2c-39.5,87-41.5,118.6-41.5,2121.7v2030.7h3757h3757l-4-2050.5l-5.9-2052.5l-43.5-79.1c-100.8-189.8-223.4-253.1-504.2-263l-213.5-7.9V-2708v-146.3h124.6c320.3,2,531.9,67.2,692.1,215.5c108.8,100.9,201.7,272.9,229.4,425.1c29.7,158.2,29.7,6446.2,2,6598.4c-47.5,249.2-201.7,448.9-431.1,557.6l-132.5,63.3l-3440.6,4C2289.4,5011.5,1573.6,5007.6,1510.4,4987.8z M8531.9,4649.7c59.3-37.6,118.7-96.9,156.2-156.2l59.3-96.9l5.9-1105.3l5.9-1103.4H5000.4h-3757v1073.7c2,1152.8,2,1150.8,106.8,1287.3c27.7,37.6,96.9,91,154.2,118.6l102.8,51.4l3412.9-4L8435,4709L8531.9,4649.7z M3833.7-234.4v-444.9h-448.9H2934L3379-234.4c245.2,245.2,446.9,444.9,448.9,444.9C3831.8,210.5,3833.7,10.8,3833.7-234.4z"/><path d="M5435.4,3819.2c-112.7-35.6-245.2-148.3-298.6-253.1c-51.4-98.9-69.2-272.9-39.5-383.6c33.6-120.6,136.4-245.2,259-312.4c219.5-116.6,494.3-55.4,646.6,144.3c213.6,282.8,79.1,703.9-259,804.8C5625.2,3854.8,5552.1,3854.8,5435.4,3819.2z M5757.7,3473.1c142.4-158.2,0-407.3-211.6-367.8c-199.7,37.6-231.3,348-43.5,429.1C5581.7,3568,5698.4,3540.4,5757.7,3473.1z"/><path d="M6546.7,3811.3c-128.5-45.5-268.9-174-312.4-290.7c-21.8-59.3-29.6-128.5-23.7-233.3c5.9-126.5,15.8-160.2,65.2-233.3c181.9-257.1,484.5-318.3,735.6-148.3c166.1,114.7,257.1,352,205.6,541.8C7137.9,3740.1,6825.5,3912.1,6546.7,3811.3z M6819.5,3522.6c31.6-17.8,71.2-57.3,89-89c118.6-229.4-162.1-442.9-348-265C6374.6,3346.6,6590.2,3641.2,6819.5,3522.6z"/><path d="M7715.3,3829.1c-245.2-57.3-423.1-312.4-393.5-561.6c41.5-363.8,468.6-575.4,775.1-385.6c85,51.4,183.9,166.1,219.5,253.1c43.5,100.8,39.6,292.6-7.9,399.4C8209.6,3753.9,7946.6,3884.4,7715.3,3829.1z M7948.6,3518.6c126.6-75.1,146.3-247.2,39.6-350c-185.9-178-466.6,35.6-348,265C7697.5,3544.3,7839.8,3581.9,7948.6,3518.6z"/><path d="M1886.1,3761.8c-81.1-35.6-164.1-136.4-179.9-217.5c-5.9-37.6-7.9-160.2-4-274.9c5.9-225.4,23.7-270.9,142.4-357.9c53.4-39.6,79.1-41.5,1081.6-47.5c1146.9-5.9,1113.2-9.9,1220,130.5c51.4,67.2,53.4,77.1,53.4,332.2c0,286.7-9.9,318.4-136.4,411.3c-53.4,41.5-79.1,41.5-1085.6,45.5C2149,3787.5,1933.5,3783.6,1886.1,3761.8z M3912.8,3324.8v-168.1h-959h-959v168.1v168.1h959h959V3324.8z"/><path d="M6072.1-1258.6l-537.8-537.8l98.9-98.9l98.9-98.9l352,352c191.8,191.8,357.9,350,365.8,350c7.9,0,13.8-395.5,13.8-879.9v-879.9H6602h138.4v879.9c0,484.5,5.9,879.9,13.8,879.9c7.9,0,174-158.2,365.8-350l352-352l102.8,104.8l104.8,102.8l-533.9,533.9l-533.9,533.9L6072.1-1258.6z"/><path d="M5455.2-3328.9v-454.8H6602h1146.9v454.8v454.8h-148.3h-148.3v-306.5v-306.5H6602h-850.3v306.5v306.5h-148.3h-148.3V-3328.9z"/></g></g>
</svg>