<?xml version="1.0" standalone="no"?>
<!DOCTYPE svg PUBLIC "-//W3C//DTD SVG 20010904//EN"
 "http://www.w3.org/TR/2001/REC-SVG-20010904/DTD/svg10.dtd">
<svg version="1.0" xmlns="http://www.w3.org/2000/svg"
 width="1280.000000pt" height="1066.000000pt" viewBox="0 0 1280.000000 1066.000000"
 preserveAspectRatio="xMidYMid meet">
<metadata>
Created by potrace 1.15, written by Peter Selinger 2001-2017
</metadata>
<g transform="translate(0.000000,1066.000000) scale(0.100000,-0.100000)"
fill="#000000" stroke="none">
<path d="M3660 10644 c-259 -70 -347 -383 -196 -699 45 -93 91 -154 267 -355
79 -91 203 -232 274 -315 134 -154 2325 -2673 2654 -3049 101 -116 238 -274
304 -351 159 -184 111 -128 1586 -1825 1753 -2015 1863 -2141 1911 -2184 51
-46 137 -87 195 -94 40 -4 45 -9 106 -95 82 -117 255 -297 389 -404 58 -47
224 -164 370 -261 420 -278 642 -445 835 -626 l80 -75 -50 0 c-27 -1 -113 4
-190 9 -164 11 -904 45 -1320 60 -1146 41 -1741 71 -2365 121 -1070 84 -1747
185 -1977 295 -77 36 -98 61 -89 99 11 42 35 54 376 195 304 125 473 222 578
334 64 68 92 125 92 191 0 92 -52 175 -169 267 -324 258 -1078 408 -2461 488
-96 6 -308 17 -470 25 -162 8 -491 26 -730 40 -1268 72 -1860 94 -2600 99
-305 1 -458 2 -340 0 776 -11 1753 -53 2620 -114 693 -49 1032 -72 1250 -85
1291 -78 1988 -185 2433 -372 275 -116 420 -280 367 -417 -15 -41 -87 -112
-158 -157 -85 -54 -167 -91 -432 -196 -247 -98 -315 -130 -387 -184 -128 -96
-108 -197 55 -282 429 -224 1600 -376 3992 -517 1211 -71 1714 -117 2068 -187
113 -22 139 -24 172 -14 104 31 132 175 49 245 -35 30 -43 32 -163 43 l-90 8
-89 130 c-151 221 -232 365 -452 810 -227 459 -313 604 -442 745 -73 81 -149
153 -224 213 -46 37 -46 38 -51 110 -8 114 -34 156 -256 413 -237 274 -2307
2653 -2922 3358 -239 275 -466 536 -505 580 -83 97 -75 88 -1592 1831 -660
759 -1309 1505 -1443 1658 -133 153 -272 303 -308 333 -170 140 -387 202 -552
158z"/>
</g>
</svg>
