<?xml version="1.0" encoding="utf-8"?>
<!-- Svg Vector Icons : http://www.onlinewebfonts.com/icon -->
<!DOCTYPE svg PUBLIC "-//W3C//DTD SVG 1.1//EN" "http://www.w3.org/Graphics/SVG/1.1/DTD/svg11.dtd">
<svg version="1.1" xmlns="http://www.w3.org/2000/svg" xmlns:xlink="http://www.w3.org/1999/xlink" x="0px" y="0px" viewBox="0 0 1000 1000" enable-background="new 0 0 1000 1000" xml:space="preserve">
<metadata> Svg Vector Icons : http://www.onlinewebfonts.com/icon </metadata>
<g><g><g><path d="M733.6,583.3V295.6l-150.3,70.3v1.1v-66c0-7.9-2.9-14.8-8.7-20.6c-5.8-5.8-12.6-8.7-20.6-8.7H298.8c-7.9,0-14.6,2.9-20,8.7c-5.4,5.8-8.1,12.6-8.1,20.6v278c0,7.9,2.7,14.8,8.1,20.6c5.4,5.8,12.1,8.7,20,8.7h255.3c7.9,0,14.8-2.9,20.6-8.7c5.8-5.8,8.7-12.6,8.7-20.6v-67.1L733.6,583.3z M500,11.1c67.8,0,131.4,11.4,190.9,34.1c59.5,22.7,111.4,53.5,155.8,92.5C891,176.6,926,222.4,951.6,275c25.6,52.6,38.4,108.5,38.4,167.7c0,59.9-12.8,116.1-38.4,168.7C926,664.1,891,709.8,846.7,748.8c-44.3,38.9-96.3,69.8-155.8,92.5C631.4,864,567.8,875.3,500,875.3c-49,0-97.4-6.5-144.9-19.5L133.3,985.7c-4.3,2.2-8.7,3.2-13,3.2c-7.2,0-13-2.2-17.3-6.5c-9.4-9.4-11.2-19.5-5.4-30.3l94.1-173.1C134,738,89.3,688,57.6,629.3C25.9,570.5,10,508.3,10,442.7c0-59.1,12.8-115,38.4-167.7s60.6-98.4,104.9-137.4c44.3-38.9,96.3-69.8,155.8-92.5C368.6,22.4,432.2,11.1,500,11.1z"/></g></g><g></g><g></g><g></g><g></g><g></g><g></g><g></g><g></g><g></g><g></g><g></g><g></g><g></g><g></g><g></g></g>
</svg>